<?xml version="1.0" encoding="UTF-8" standalone="no"?>
<svg width="438px" height="274px" viewBox="0 0 438 274" version="1.1" xmlns="http://www.w3.org/2000/svg" xmlns:xlink="http://www.w3.org/1999/xlink">
    <!-- Generator: Sketch 41 (35326) - http://www.bohemiancoding.com/sketch -->
    <title>step-upload</title>
    <desc>Created with Sketch.</desc>
    <defs></defs>
    <g id="Page-1" stroke="none" stroke-width="1" fill="none" fill-rule="evenodd">
        <g id="Exports" transform="translate(0.000000, -55.000000)">
            <g id="step-upload" transform="translate(0.000000, 56.000000)">
                <g id="bg-ilustrasi" transform="translate(0.797033, 0.284056)">
                    <path d="M3.77396662,122.757344 C3.77396662,122.757344 4.70900417,124.229132 5.30080312,124.820931 C5.91081864,125.430946 7.37941003,126.362788 7.37941003,126.362788 C7.37941003,126.362788 5.88503846,127.348534 5.30080312,127.932769 C4.68322399,128.550348 3.77396662,129.968231 3.77396662,129.968231 C3.77396662,129.968231 2.85821095,128.505179 2.2858004,127.932769 C1.65639648,127.303365 0.168523211,126.362788 0.168523211,126.362788 C0.168523211,126.362788 1.66603741,125.440694 2.2858004,124.820931 C2.86785188,124.238879 3.77396662,122.757344 3.77396662,122.757344 Z" id="Polygon" fill="#DAE2E6"></path>
                    <path d="M416.734949,201.233166 C416.734949,201.233166 417.71418,202.774517 418.33395,203.394287 C418.972798,204.033134 420.510802,205.009019 420.510802,205.009019 C420.510802,205.009019 418.945799,206.041356 418.33395,206.653205 C417.687182,207.299973 416.734949,208.784872 416.734949,208.784872 C416.734949,208.784872 415.77591,207.25267 415.176445,206.653205 C414.517293,205.994052 412.959096,205.009019 412.959096,205.009019 C412.959096,205.009019 414.527389,204.043343 415.176445,203.394287 C415.786007,202.784725 416.734949,201.233166 416.734949,201.233166 Z" id="Polygon-Copy-9" fill="#DAE2E6"></path>
                    <path d="M367.750231,159.414767 C367.750231,159.414767 369.000229,161.382314 369.79137,162.173455 C370.606865,162.98895 372.57014,164.234675 372.57014,164.234675 C372.57014,164.234675 370.572401,165.552461 369.79137,166.333492 C368.965765,167.159098 367.750231,169.054584 367.750231,169.054584 C367.750231,169.054584 366.52601,167.098714 365.760788,166.333492 C364.919374,165.492078 362.930322,164.234675 362.930322,164.234675 C362.930322,164.234675 364.932262,163.001981 365.760788,162.173455 C366.538899,161.395345 367.750231,159.414767 367.750231,159.414767 Z" id="Polygon-Copy-4" fill="#DAE2E6"></path>
                    <path d="M347.921291,60.9454628 C347.921291,60.9454628 349.171289,62.91301 349.96243,63.7041518 C350.777925,64.5196462 352.7412,65.7653714 352.7412,65.7653714 C352.7412,65.7653714 350.743461,67.0831577 349.96243,67.8641881 C349.136825,68.6897939 347.921291,70.5852799 347.921291,70.5852799 C347.921291,70.5852799 346.69707,68.6294106 345.931848,67.8641881 C345.090434,67.0227744 343.101382,65.7653714 343.101382,65.7653714 C343.101382,65.7653714 345.103322,64.532677 345.931848,63.7041518 C346.709959,62.9260409 347.921291,60.9454628 347.921291,60.9454628 Z" id="Polygon-Copy-8" fill="#DAE2E6"></path>
                    <path d="M20.2360367,204.972191 C20.2360367,204.972191 21.0278724,206.218572 21.5290367,206.719737 C22.0456278,207.236328 23.289303,208.025457 23.289303,208.025457 C23.289303,208.025457 22.0237959,208.860235 21.5290367,209.354994 C21.0060404,209.87799 20.2360367,211.078723 20.2360367,211.078723 C20.2360367,211.078723 19.4605299,209.839739 18.9757846,209.354994 C18.4427745,208.821984 17.1827705,208.025457 17.1827705,208.025457 C17.1827705,208.025457 18.4509389,207.244582 18.9757846,206.719737 C19.4686943,206.226827 20.2360367,204.972191 20.2360367,204.972191 Z" id="Polygon-Copy-7" fill="#DAE2E6"></path>
                    <path d="M65.2462774,187.26457 C65.2462774,187.26457 66.181315,188.736357 66.7731139,189.328156 C67.3831294,189.938171 68.8517208,190.870013 68.8517208,190.870013 C68.8517208,190.870013 67.3573493,191.855759 66.7731139,192.439994 C66.1555348,193.057573 65.2462774,194.475457 65.2462774,194.475457 C65.2462774,194.475457 64.3305217,193.012405 63.7581112,192.439994 C63.1287073,191.81059 61.640834,190.870013 61.640834,190.870013 C61.640834,190.870013 63.1383482,189.947919 63.7581112,189.328156 C64.3401627,188.746104 65.2462774,187.26457 65.2462774,187.26457 Z" id="Polygon-Copy" fill="#DAE2E6"></path>
                    <path d="M224.197229,31.6287635 C224.197229,31.6287635 225.132266,33.1005508 225.724065,33.6923497 C226.334081,34.3023653 227.802672,35.2342069 227.802672,35.2342069 C227.802672,35.2342069 226.308301,36.2199526 225.724065,36.8041879 C225.106486,37.4217671 224.197229,38.8396503 224.197229,38.8396503 C224.197229,38.8396503 223.281473,37.3765985 222.709063,36.8041879 C222.079659,36.174784 220.591786,35.2342069 220.591786,35.2342069 C220.591786,35.2342069 222.0893,34.3121127 222.709063,33.6923497 C223.291114,33.1102983 224.197229,31.6287635 224.197229,31.6287635 Z" id="Polygon-Copy-3" fill="#DAE2E6"></path>
                    <path d="M287.787289,54.2676523 C287.787289,54.2676523 288.722326,55.7394396 289.314125,56.3312385 C289.924141,56.941254 291.392732,57.8730957 291.392732,57.8730957 C291.392732,57.8730957 289.898361,58.8588414 289.314125,59.4430767 C288.696546,60.0606558 287.787289,61.4785391 287.787289,61.4785391 C287.787289,61.4785391 286.871533,60.0154873 286.299123,59.4430767 C285.669719,58.8136728 284.181845,57.8730957 284.181845,57.8730957 C284.181845,57.8730957 285.67936,56.9510015 286.299123,56.3312385 C286.881174,55.749187 287.787289,54.2676523 287.787289,54.2676523 Z" id="Polygon-Copy-6" fill="#DAE2E6"></path>
                    <path d="M71.82355,48.8906977 C71.82355,48.8906977 72.5659465,50.0592601 73.0358201,50.5291338 C73.5201573,51.0134709 74.6861822,51.7533299 74.6861822,51.7533299 C74.6861822,51.7533299 73.4996884,52.5359874 73.0358201,52.9998557 C72.5454777,53.4901981 71.82355,54.6159621 71.82355,54.6159621 C71.82355,54.6159621 71.0964629,53.4543354 70.6419832,52.9998557 C70.1422521,52.5001247 68.9609179,51.7533299 68.9609179,51.7533299 C68.9609179,51.7533299 70.1499068,51.0212101 70.6419832,50.5291338 C71.1041175,50.0669994 71.82355,48.8906977 71.82355,48.8906977 Z" id="Polygon-Copy-2" fill="#DAE2E6"></path>
                    <path d="M217.729153,132.728493 C217.729153,132.728493 218.47155,133.897055 218.941423,134.366929 C219.425761,134.851266 220.591786,135.591125 220.591786,135.591125 C220.591786,135.591125 219.405292,136.373783 218.941423,136.837651 C218.451081,137.327993 217.729153,138.453757 217.729153,138.453757 C217.729153,138.453757 217.002066,137.292131 216.547586,136.837651 C216.047855,136.33792 214.866521,135.591125 214.866521,135.591125 C214.866521,135.591125 216.05551,134.859005 216.547586,134.366929 C217.009721,133.904795 217.729153,132.728493 217.729153,132.728493 Z" id="Polygon-Copy-5" fill="#DAE2E6"></path>
                    <path d="M384.944501,125.560052 L391.090501,120.630015" id="Path-66" stroke="#DAE2E6" stroke-width="2" stroke-linecap="round" fill="#DAE2E6"></path>
                    <path d="M120.056343,71.9453111 L113.15932,65.0482881" id="Path-67" stroke="#DAE2E6" stroke-width="2" stroke-linecap="round" fill="#DAE2E6"></path>
                    <path d="M31.4647104,163.122581 L24.5676873,156.225558" id="Path-67-Copy" stroke="#DAE2E6" stroke-width="2" stroke-linecap="round" fill="#DAE2E6"></path>
                    <path d="M40.2645251,226.656036 L31.1810049,231.993041" id="Path-68" stroke="#DAE2E6" stroke-width="2" stroke-linecap="round" fill="#DAE2E6"></path>
                    <path d="M399.367098,230.307671 L405.349485,230.307671" id="Path-69" stroke="#DAE2E6" stroke-width="2" stroke-linecap="round" fill="#DAE2E6"></path>
                    <path d="M79.8788322,208.724865 C81.5173422,205.979757 82.4587741,202.770411 82.4587741,199.341182 C82.4587741,189.215067 74.249936,181.006229 64.123821,181.006229 C56.2631949,181.006229 49.5579184,185.952868 46.951066,192.903073" id="Oval-22" stroke="#DAE2E6" stroke-width="2" stroke-linecap="round" stroke-linejoin="round"></path>
                    <path d="M434.40633,225.245237 C436.04484,222.500128 436.986271,219.290782 436.986271,215.861554 C436.986271,205.735439 428.777433,197.5266 418.651318,197.5266 C410.790692,197.5266 404.085416,202.47324 401.478563,209.423444" id="Oval-22-Copy-10" stroke="#DAE2E6" stroke-width="2" stroke-linecap="round" stroke-linejoin="round"></path>
                    <path d="M98.2001006,29.7218557 C98.2001006,32.469828 100.427772,34.6974997 103.175745,34.6974997 L103.175745,34.6974997 C105.923717,34.6974997 108.151389,32.469828 108.151389,29.7218557 C108.151389,26.9738834 105.923717,24.7462117 103.175745,24.7462117" id="Oval-22-Copy-3" stroke="#DAE2E6" stroke-width="2" stroke-linecap="round" stroke-linejoin="round"></path>
                    <ellipse id="Oval-22-Copy-8" stroke="#DAE2E6" stroke-width="2" stroke-linecap="round" stroke-linejoin="round" cx="372.725875" cy="209.684418" rx="4.975644" ry="4.975644"></ellipse>
                    <ellipse id="Oval-22-Copy-7" stroke="#DAE2E6" stroke-width="2" stroke-linecap="round" stroke-linejoin="round" cx="168.648102" cy="3.65848757" rx="3.46000222" ry="3.46000222"></ellipse>
                    <path d="M390.003108,154.427377 C390.003108,149.930527 386.357691,146.28511 381.860841,146.28511 C377.363991,146.28511 373.718574,149.930527 373.718574,154.427377" id="Oval-22-Copy-4" stroke="#DAE2E6" stroke-width="2" stroke-linecap="round" stroke-linejoin="round"></path>
                    <path d="M65.2462774,218.805333 C65.2462774,213.870585 63.9500592,209.238584 61.6795287,205.231237 M56.9858114,199.124312 C52.0107675,194.241143 45.1923318,191.229559 37.6705029,191.229559 C23.3664607,191.229559 11.6061354,202.120505 10.2294244,216.062501" id="Oval-22-Copy" stroke="#DAE2E6" stroke-width="2" stroke-linecap="round" stroke-linejoin="round"></path>
                    <path d="M361.511009,79.3779088 C361.747966,77.923564 361.871161,76.4310137 361.871161,74.9096897 C361.871161,59.68001 349.525066,47.3339152 334.295387,47.3339152 C321.841032,47.3339152 311.315062,55.5903109 307.892326,66.9282533" id="Oval-22-Copy-6" stroke="#DAE2E6" stroke-width="2" stroke-linecap="round" stroke-linejoin="round"></path>
                    <path d="M366.93601,86.5374944 C366.93601,82.6987891 363.824125,79.5869036 359.985419,79.5869036 C356.146714,79.5869036 353.034828,82.6987891 353.034828,86.5374944" id="Oval-22-Copy-9" stroke="#DAE2E6" stroke-width="2" stroke-linecap="round" stroke-linejoin="round"></path>
                    <path d="M21.4898673,221.946113 C19.4385804,218.721743 15.8335683,216.582517 11.7289131,216.582517 C5.34428606,216.582517 0.168523211,221.75828 0.168523211,228.142907" id="Oval-22-Copy-2" stroke="#DAE2E6" stroke-width="2" stroke-linecap="round" stroke-linejoin="round"></path>
                    <path d="M402.51563,172.222742 C404.060319,170.25732 404.98162,167.778801 404.98162,165.0851 C404.98162,158.700473 399.805858,153.52471 393.421231,153.52471 C389.175278,153.52471 385.46396,155.813751 383.454005,159.225104" id="Oval-22-Copy-5" stroke="#DAE2E6" stroke-width="2" stroke-linecap="round" stroke-linejoin="round"></path>
                    <path d="M12.3779598,271.697995 L21.3667583,271.697995 M35.5319298,271.697995 L53.3308422,271.697995 M62.1233338,271.697995 L428.832359,271.697995" id="Path-70" stroke="#404F54" stroke-width="2" stroke-linecap="round" fill="#404F54"></path>
                </g>
                <g id="laptop" transform="translate(108.000000, 140.043100)">
                    <path d="M207.624941,81.4984505 L207.624941,119.546613 C207.624941,125.518868 202.774883,130.360336 196.789298,130.360336 L18.2414032,130.360336 C12.2570425,130.360336 7.40575962,125.526468 7.40575962,119.540526 L7.40575962,10.9157981 C7.40575962,7.17723086 9.30417815,3.8815269 12.1913709,1.9378994 C13.9189825,0.774889606 16.0006222,0.0959874429 18.2414032,0.0959874429 L28.065351,0.0959874429 L196.789298,0.0959874429 C202.773658,0.0959874429 207.624941,4.95690158 207.624941,10.9076216 L207.624941,50.3342751 M207.624941,64.4755162 L207.624941,68.1954557" id="Rectangle-3" stroke="#404F54" stroke-width="2" stroke-linecap="round" fill="#F5F6F7"></path>
                    <path d="M9.20953603,93.850989 L205.83317,93.850989 L205.83317,120.529955 C205.83317,126.05163 201.356978,130.527832 195.829247,130.527832 L19.2134592,130.527832 C13.688445,130.527832 9.20953603,126.048879 9.20953603,120.529955 L9.20953603,93.850989 Z" id="Rectangle-9" fill="#E1EBF0"></path>
                    <rect id="Rectangle" stroke="#404F54" stroke-width="2" stroke-linecap="round" fill="#FFFFFF" x="18" y="12" width="179" height="97"></rect>
                    <g id="Group-3" transform="translate(88.429833, 47.093129)" stroke="#404F54" stroke-width="2" stroke-linecap="round">
                        <path d="M6.17475015,7.35359805 C6.4277579,5.15987891 8.43194956,3.3736863 10.6310314,3.36411316 L22.3162871,3.31324438 L24.3740869,0.283425314 L29.6132247,0.283425314 C31.8210832,0.283425314 33.3732302,2.06809159 33.0841303,4.23889187 L31.1720636,18.5962615 C30.8811333,20.7808054 28.8634648,22.5517281 26.6482575,22.5517281 L8.41893773,22.5517281 C6.21143887,22.5517281 4.62792321,20.7654559 4.88001851,18.5796482 L6.17475015,7.35359805 Z" id="Rectangle-23-Copy" stroke-linejoin="round" fill="#2FC3B6"></path>
                        <path d="M1.11658177,11.9287699 L0.0833654041,8.60812459 L0.0833654041,8.60812459 C-0.206891243,7.67527122 0.349767297,6.91904414 1.32936243,6.91904414 L24.0096363,6.91904414 C24.9880381,6.91904414 26.0157951,7.67304098 26.3063547,8.60686818 L30.1201225,20.863904 C30.4101633,21.7960635 29.8533297,22.5517281 28.8737346,22.5517281 L6.19346064,22.5517281 C5.21505884,22.5517281 4.18718633,21.7973598 3.89572185,20.8606246 L1.99692254,14.7580896" id="Rectangle-23-Copy-2" fill="#85DAD2"></path>
                    </g>
                    <rect id="Rectangle-5" fill="#9CBBCA" x="98" y="114" width="20" height="2" rx="1"></rect>
                    <rect id="Rectangle-4" stroke="#404F54" stroke-width="2" stroke-linecap="round" fill="#FFFFFF" x="0" y="121" width="219" height="10" rx="5"></rect>
                </g>
                <polygon id="Path-14" fill="#92A9B4" opacity="0.331691576" points="116.459473 207.865255 116.459473 167.715168 134.136601 195.926515"></polygon>
                <polygon id="Path-14-Copy" fill="#92A9B4" opacity="0.331691576" points="272.982449 245.682727 280.634348 235.724887 315.177666 227.992173 315.177666 249.141638 307.326422 261.162971 297.324134 261.162971"></polygon>
                <g id="mouse" transform="translate(341.532699, 248.415255)">
                    <path d="M46.8744681,23.1719931 C46.5960069,10.6847736 36.3862248,0.647651255 23.8321472,0.647651255 C11.2780696,0.647651255 1.06828749,10.6847736 0.789826252,23.1719931 L46.8744681,23.1719931 L46.8744681,23.1719931 Z" id="Combined-Shape-Copy-3" fill="#F5F6F7"></path>
                    <path d="M29.2910062,5.98379808 C19.7110622,5.98379808 11.9200365,13.6430681 11.7075444,23.1719931 L46.8744681,23.1719931 C46.6619759,13.6430681 38.8709503,5.98379808 29.2910062,5.98379808 Z" id="Combined-Shape" fill="#FF8F5C"></path>
                    <path d="M46.8744681,23.1719931 C46.5960069,10.6847736 36.3862248,0.647651255 23.8321472,0.647651255 C11.2780696,0.647651255 1.06828749,10.6847736 0.789826252,23.1719931 L46.8744681,23.1719931 L46.8744681,23.1719931 Z" id="Combined-Shape-Copy-2" stroke="#404F54" stroke-width="2" stroke-linecap="round"></path>
                </g>
                <g id="cloud" transform="translate(206.562154, 88.052924)">
                    <path d="M45.3026744,87.9348953 L41.4263999,87.9348953 M33.379313,87.9348953 C33.044373,87.9250459 32.7068626,87.9348953 32.3670517,87.9348953 C22.8630916,87.9348953 15.1586096,80.2304134 15.1586096,70.7264532 C15.1586096,61.2224931 22.8630916,53.5180111 32.3670517,53.5180111 C32.3851753,52.8564812 32.3670517,52.1901724 32.3670517,51.5196307 C32.3670517,31.4080354 29.4305296,28.3520001 49.5421249,28.3520001 C69.6537202,28.3520001 86.6148612,42.5398008 86.6148612,62.6513961 C86.6148612,63.3219378 107.606841,60.093444 107.571057,60.7550566 C108.127515,63.2197631 108.127515,82.4862453 108.127515,87.6864699 C107.516133,87.791341 106.893732,87.8639576 106.262127,87.9025052 C106.262127,87.9025052 100.458187,87.910718 97.556217,87.9148245 C92.8282478,87.9215147 83.3723096,87.9348953 83.3723096,87.9348953" id="Combined-Shape-Copy-4" fill="#92A9B4" opacity="0.331691576"></path>
                    <path d="M30.3026744,72.9348953 L26.4263999,72.9348953 M18.379313,72.9348953 C18.044373,72.9250459 17.7068626,72.9348953 17.3670517,72.9348953 C7.86309158,72.9348953 0.158609624,65.2304134 0.158609624,55.7264532 C0.158609624,46.2224931 7.86309158,38.5180111 17.3670517,38.5180111 C17.3851753,37.8564812 17.3670517,37.1901724 17.3670517,36.5196307 C17.3670517,16.4080354 33.670721,0.104366131 53.7823163,0.104366131 C73.8939116,0.104366131 90.1975809,16.4080354 90.1975809,36.5196307 C90.1975809,37.1901724 90.1794573,37.8564812 90.1436733,38.5180938 C99.701541,38.5180111 107.406023,46.2224931 107.406023,55.7264532 C107.406023,64.8729139 100.270261,72.3527279 91.2621266,72.9025052 L68.3723096,72.9348953" id="Combined-Shape" stroke="#404F54" stroke-width="2" stroke-linecap="round" fill="#85DAD2"></path>
                    <path d="M45.0872764,72.115179 L42.1659869,72.115179 M36.1014343,72.115179 C35.8490124,72.1077562 35.5946533,72.115179 35.3385605,72.115179 C28.1760597,72.115179 22.3697056,66.3088249 22.3697056,59.1463241 C22.3697056,51.9838233 28.1760597,46.1774692 35.3385605,46.1774692 C35.352219,45.6789182 35.3385605,45.1767658 35.3385605,44.6714232 C35.3385605,29.5146554 47.6255485,17.2276674 62.7823163,17.2276674 C77.9390841,17.2276674 90.2260721,29.5146554 90.2260721,44.6714232 C90.2260721,45.1767658 90.2124136,45.6789182 90.1854455,46.1775315 C97.3885729,46.1774692 103.194927,51.9838233 103.194927,59.1463241 C103.194927,66.0394014 97.817179,71.6764383 91.0283492,72.0907687 L73.777821,72.115179" id="Combined-Shape-Copy" fill="#2FC3B6"></path>
                    <path d="M91.4286438,38.5511296 C91.4286438,38.5511296 80.6779211,37.6470156 76.7585405,48.17404" id="Path-8" stroke="#404F54" stroke-width="2" stroke-linecap="round"></path>
                </g>
                <g id="loading" transform="translate(170.000000, 223.220068)">
                    <rect id="Rectangle-16" fill="#DAE2E6" x="0" y="0" width="91" height="3" rx="1.5"></rect>
                    <rect id="Rectangle-16-Copy" fill="#FF8F5C" x="0" y="0" width="60.0567835" height="3" rx="1.5"></rect>
                </g>
                <g id="arrow" transform="translate(252.000000, 118.220068)" stroke="#FFFFFF" stroke-width="3" stroke-linecap="round" stroke-linejoin="round">
                    <polyline id="Path-9" transform="translate(8.562154, 8.515260) rotate(-225.000000) translate(-8.562154, -8.515260) " points="3.05419858 3.17118277 3.05419858 13.8593382 14.0701085 13.8593382"></polyline>
                    <path d="M8.73387402,1.37027901 L8.73387402,17.6893119" id="Path-10"></path>
                </g>
                <g id="video" transform="translate(103.403410, 173.176375) rotate(-31.000000) translate(-103.403410, -173.176375) translate(85.903410, 148.176375)">
                    <polygon id="Rectangle-17" stroke="#404F54" stroke-width="2" stroke-linecap="round" fill="#FFFFFF" points="12.2835351 -1.42108547e-13 35 -1.42108547e-13 35 50 -2.13162821e-13 50 -2.13162821e-13 12.4813241"></polygon>
                    <circle id="Oval" fill="#FFAF8B" cx="18" cy="29" r="9.79284959"></circle>
                    <path d="M1.04840165,12.846779 L12.7443319,1.00695936 L12.9314957,8.91306846 C12.9837478,11.1202812 11.232923,12.9001787 9.02105159,12.8885813 L1.04840165,12.846779 Z" id="Path-11" fill="#FFAF8B"></path>
                    <path d="M17.3860441,26.4144697 C16.9354852,26.093734 16.5702351,26.2891475 16.5702351,26.8371373 L16.5702351,31.1628627 C16.5702351,31.7170313 16.9342235,31.9071642 17.3860441,31.5855303 L20.2023018,29.5807434 C20.6528607,29.2600077 20.6541224,28.7408905 20.2023018,28.4192566 L17.3860441,26.4144697 Z" id="Path-12" fill="#FFFFFF"></path>
                </g>
                <g id="pdf" transform="translate(161.088394, 58.697736) rotate(20.000000) translate(-161.088394, -58.697736) translate(143.588394, 33.697736)">
                    <polygon id="Rectangle-17" stroke="#404F54" stroke-width="2" stroke-linecap="round" fill="#FFFFFF" points="12.2835351 1.0658141e-14 35 1.0658141e-14 35 50 0 50 0 12.4813241"></polygon>
                    <path d="M1.04840165,12.846779 L12.7443319,1.00695936 L12.9314957,8.91306846 C12.9837478,11.1202812 11.232923,12.9001787 9.02105159,12.8885813 L1.04840165,12.846779 Z" id="Path-11" fill="#85DAD2"></path>
                    <path d="M7.0972432,32.81 L7.0972432,25 L10.4632432,25 C10.8445784,25 11.1965749,25.0788325 11.5192432,25.2365 C11.8419115,25.3941675 12.118742,25.5994987 12.3497432,25.8525 C12.5807444,26.1055013 12.7622425,26.395165 12.8942432,26.7215 C13.0262439,27.047835 13.0922432,27.3759984 13.0922432,27.706 C13.0922432,28.0506684 13.0299105,28.386165 12.9052432,28.7125 C12.7805759,29.038835 12.606411,29.3284987 12.3827432,29.5815 C12.1590754,29.8345013 11.8877448,30.0361659 11.5687432,30.1865 C11.2497416,30.3368341 10.8995784,30.412 10.5182432,30.412 L9.2422432,30.412 L9.2422432,32.81 L7.0972432,32.81 Z M9.2422432,28.542 L10.3752432,28.542 C10.5072439,28.542 10.630076,28.4815006 10.7437432,28.3605 C10.8574104,28.2394994 10.9142432,28.0213349 10.9142432,27.706 C10.9142432,27.3833317 10.8482439,27.1633339 10.7162432,27.046 C10.5842425,26.9286661 10.4522439,26.87 10.3202432,26.87 L9.2422432,26.87 L9.2422432,28.542 Z M13.9502432,32.81 L13.9502432,25 L16.9532432,25 C17.5985798,25 18.1669074,25.1026656 18.6582432,25.308 C19.149579,25.5133344 19.5602416,25.7919982 19.8902432,26.144 C20.2202449,26.4960018 20.4695757,26.9084976 20.6382432,27.3815 C20.8069107,27.8545024 20.8912432,28.358664 20.8912432,28.894 C20.8912432,29.488003 20.7977441,30.0251643 20.6107432,30.5055 C20.4237423,30.9858357 20.1579116,31.3964983 19.8132432,31.7375 C19.4685748,32.0785017 19.0542456,32.3424991 18.5702432,32.5295 C18.0862408,32.7165009 17.5472462,32.81 16.9532432,32.81 L13.9502432,32.81 Z M18.7132432,28.894 C18.7132432,28.5933318 18.6729103,28.3183346 18.5922432,28.069 C18.5115761,27.8196654 18.3960773,27.6070009 18.2457432,27.431 C18.0954091,27.2549991 17.9102443,27.1175005 17.6902432,27.0185 C17.4702421,26.9194995 17.2245779,26.87 16.9532432,26.87 L16.0952432,26.87 L16.0952432,30.94 L16.9532432,30.94 C17.2319113,30.94 17.4812421,30.8886672 17.7012432,30.786 C17.9212443,30.6833328 18.1064091,30.5403343 18.2567432,30.357 C18.4070773,30.1736658 18.5207428,29.9573346 18.5977432,29.708 C18.6747436,29.4586654 18.7132432,29.1873348 18.7132432,28.894 L18.7132432,28.894 Z M21.8262432,32.81 L21.8262432,25 L27.1832432,25 L27.1832432,26.87 L23.9712432,26.87 L23.9712432,28.168 L26.5892432,28.168 L26.5892432,29.906 L23.9712432,29.906 L23.9712432,32.81 L21.8262432,32.81 Z" id="PDF" fill="#2FC3B6"></path>
                </g>
                <g id="pdf-copy" transform="translate(301.340897, 226.220068) rotate(33.000000) translate(-301.340897, -226.220068) translate(283.840897, 201.220068)">
                    <polygon id="Rectangle-17" stroke="#404F54" stroke-width="2" stroke-linecap="round" fill="#FFFFFF" points="12.2835351 -1.42108547e-13 35 -1.42108547e-13 35 50 2.84217094e-13 50 2.84217094e-13 12.4813241"></polygon>
                    <path d="M1.04840165,12.846779 L12.7443319,1.00695936 L12.9314957,8.91306846 C12.9837478,11.1202812 11.232923,12.9001787 9.02105159,12.8885813 L1.04840165,12.846779 Z" id="Path-11" fill="#FFAF8B"></path>
                    <rect id="Rectangle-18" fill="#FFAF8B" x="6.98890218" y="22.1971998" width="21" height="17" rx="1"></rect>
                    <path d="M11.1836432,32.3761262 C10.6139901,33.9281455 11.4966386,35.1863057 13.1439007,35.1863057 L20.7929698,35.1863057 C22.4452432,35.1863057 22.7855921,34.279381 21.5658914,33.1721895 L15.7779464,27.9181433 C14.5525458,26.8057776 13.0996836,27.1558765 12.5277141,28.7142065 L11.1836432,32.3761262 Z" id="Path-13" fill="#FFFFFF" opacity="0.728430707"></path>
                    <path d="M11.8310651,32.3020282 C11.3697852,33.8949707 12.3402875,35.1863057 13.9875497,35.1863057 L21.6366188,35.1863057 C23.2888922,35.1863057 23.5483347,34.4018871 22.1981843,33.4212453 L15.7949852,28.7704712 C14.4528558,27.7956553 12.9894698,28.3016979 12.5296239,29.8896883 L11.8310651,32.3020282 Z" id="Path-13-Copy" fill="#FFFFFF" opacity="0.402796649" transform="translate(17.390260, 31.730120) scale(-1, 1) translate(-17.390260, -31.730120) "></path>
                </g>
            </g>
        </g>
    </g>
</svg>